<svg xmlns="http://www.w3.org/2000/svg" viewBox="6.6 30 519.7 107.35" width="2078.8" height="429.4" xmlns:c2pa="http://c2pa.org/manifest"><path d="M19.80 100L6.60 100L6.60 30L19.80 30L19.80 57.80L21.60 57.80L44.30 30L61.20 30L32 64.50L62.20 100L44.80 100L21.60 71.60L19.80 71.60L19.80 100ZM79.40 100L66.20 100L66.20 30L79.40 30L79.40 100ZM134.80 100L89.60 100L89.60 30L102.80 30L102.80 88L134.80 88L134.80 100ZM186 100L140.80 100L140.80 30L154 30L154 88L186 88L186 100ZM226.70 100L197.90 100L197.90 88.40L207.10 88.40L207.10 41.60L197.90 41.60L197.90 30L226.70 30Q240.80 30 248.15 37.15Q255.50 44.30 255.50 58.40L255.50 58.40L255.50 71.60Q255.50 85.70 248.15 92.85Q240.80 100 226.70 100L226.70 100ZM220.30 42L220.30 88L226.90 88Q234.90 88 238.60 83.80Q242.30 79.60 242.30 72L242.30 72L242.30 58Q242.30 50.30 238.60 46.15Q234.90 42 226.90 42L226.90 42L220.30 42ZM290.50 101.40L290.50 101.40Q281.90 101.40 275.75 98.25Q269.60 95.10 266.35 89.25Q263.10 83.40 263.10 75.40L263.10 75.40L263.10 30L276.30 30L276.30 75.80Q276.30 82.20 279.95 85.90Q283.60 89.60 290.50 89.60L290.50 89.60Q297.40 89.60 301.05 85.90Q304.70 82.20 304.70 75.80L304.70 75.80L304.70 30L317.90 30L317.90 75.40Q317.90 83.40 314.65 89.25Q311.40 95.10 305.25 98.25Q299.10 101.40 290.50 101.40ZM372.90 100L327.70 100L327.70 30L340.90 30L340.90 88L372.90 88L372.90 100ZM424.10 100L378.90 100L378.90 30L392.10 30L392.10 88L424.10 88L424.10 100Z" fill="#FFFFFF"></path><rect id="yeaah" x="436.1" y="30" width="70" height="70" fill="#FFFF00"></rect><path id="descriptor" d="M17.85 124.31L13.09 124.31L13.09 137.10L11.37 137.10L11.37 124.31L6.60 124.31L6.60 122.82L17.85 122.82L17.85 124.31ZM33.51 137.10L33.51 130.61L27.94 130.61L27.94 137.10L26.22 137.10L26.22 122.82L27.94 122.82L27.94 129.12L33.51 129.12L33.51 122.82L35.22 122.82L35.22 137.10L33.51 137.10ZM53.72 137.10L44.92 137.10L44.92 122.82L53.72 122.82L53.72 124.31L46.64 124.31L46.64 129.12L53.48 129.12L53.48 130.61L46.64 130.61L46.64 135.61L53.72 135.61L53.72 137.10ZM82.02 137.10L82.02 122.82L86.01 122.82Q88.63 122.82 89.92 124.62Q91.21 126.42 91.21 129.96L91.21 129.96Q91.21 133.50 89.92 135.30Q88.63 137.10 86.01 137.10L86.01 137.10L82.02 137.10ZM83.74 135.61L85.93 135.61Q87.65 135.61 88.51 134.42Q89.38 133.23 89.38 131.06L89.38 131.06L89.38 128.86Q89.38 126.69 88.51 125.50Q87.65 124.31 85.93 124.31L85.93 124.31L83.74 124.31L83.74 135.61ZM109.21 137.10L100.41 137.10L100.41 122.82L109.21 122.82L109.21 124.31L102.13 124.31L102.13 129.12L108.97 129.12L108.97 130.61L102.13 130.61L102.13 135.61L109.21 135.61L109.21 137.10ZM125.27 137.10L120.40 125.07L120.26 125.07L120.26 137.10L118.71 137.10L118.71 122.82L121.14 122.82L126.01 134.85L126.15 134.85L126.15 122.82L127.71 122.82L127.71 137.10L125.27 137.10ZM141.66 137.35L141.66 137.35Q139.74 137.35 138.51 136.64Q137.28 135.93 136.49 134.83L136.49 134.83L137.73 133.81Q138.57 134.85 139.50 135.36Q140.43 135.87 141.72 135.87L141.72 135.87Q143.28 135.87 144.10 135.16Q144.91 134.44 144.91 133.15L144.91 133.15Q144.91 132.11 144.32 131.53Q143.73 130.94 142.25 130.70L142.25 130.70L140.66 130.43Q139.62 130.25 138.91 129.88Q138.20 129.51 137.77 128.99Q137.34 128.47 137.16 127.84Q136.98 127.22 136.98 126.54L136.98 126.54Q136.98 124.58 138.27 123.58Q139.55 122.57 141.74 122.57L141.74 122.57Q143.46 122.57 144.64 123.15Q145.81 123.72 146.53 124.76L146.53 124.76L145.32 125.81Q144.73 125.03 143.89 124.54Q143.05 124.05 141.72 124.05L141.72 124.05Q140.27 124.05 139.49 124.66Q138.72 125.28 138.72 126.50L138.72 126.50Q138.72 127.46 139.30 128.07Q139.88 128.67 141.40 128.94L141.40 128.94L142.93 129.20Q143.97 129.39 144.69 129.76Q145.41 130.12 145.85 130.64Q146.29 131.15 146.47 131.78Q146.65 132.42 146.65 133.11L146.65 133.11Q146.65 135.10 145.35 136.22Q144.06 137.35 141.66 137.35ZM164.70 137.10L155.90 137.10L155.90 122.82L164.70 122.82L164.70 124.31L157.62 124.31L157.62 129.12L164.45 129.12L164.45 130.61L157.62 130.61L157.62 135.61L164.70 135.61L164.70 137.10ZM201.61 137.10L192.77 137.10L192.77 135.73L196.33 135.73L196.33 124.19L192.77 124.19L192.77 122.82L201.61 122.82L201.61 124.19L198.05 124.19L198.05 135.73L201.61 135.73L201.61 137.10ZM211.49 137.10L211.49 122.82L215.48 122.82Q218.10 122.82 219.39 124.62Q220.68 126.42 220.68 129.96L220.68 129.96Q220.68 133.50 219.39 135.30Q218.10 137.10 215.48 137.10L215.48 137.10L211.49 137.10ZM213.21 135.61L215.40 135.61Q217.12 135.61 217.99 134.42Q218.86 133.23 218.86 131.06L218.86 131.06L218.86 128.86Q218.86 126.69 217.99 125.50Q217.12 124.31 215.40 124.31L215.40 124.31L213.21 124.31L213.21 135.61ZM238.69 137.10L229.89 137.10L229.89 122.82L238.69 122.82L238.69 124.31L231.61 124.31L231.61 129.12L238.44 129.12L238.44 130.61L231.61 130.61L231.61 135.61L238.69 135.61L238.69 137.10ZM258.20 137.10L256.38 137.10L255.18 133.03L250.16 133.03L248.96 137.10L247.18 137.10L251.56 122.82L253.83 122.82L258.20 137.10ZM254.77 131.54L252.76 124.64L252.58 124.64L250.57 131.54L254.77 131.54ZM290.14 137.35L290.14 137.35Q287.53 137.35 286.25 135.44Q284.97 133.54 284.97 129.96L284.97 129.96Q284.97 126.38 286.25 124.48Q287.53 122.57 290.14 122.57L290.14 122.57Q291.13 122.57 291.84 122.84Q292.56 123.11 293.07 123.56Q293.58 124.01 293.93 124.57Q294.28 125.13 294.54 125.70L294.54 125.70L293.07 126.38Q292.89 125.91 292.64 125.49Q292.40 125.07 292.06 124.75Q291.72 124.44 291.26 124.25Q290.80 124.07 290.14 124.07L290.14 124.07Q288.45 124.07 287.62 125.36Q286.79 126.65 286.79 128.79L286.79 128.79L286.79 131.13Q286.79 133.27 287.62 134.56Q288.45 135.85 290.14 135.85L290.14 135.85Q290.80 135.85 291.26 135.67Q291.72 135.48 292.06 135.17Q292.40 134.85 292.64 134.43Q292.89 134.01 293.07 133.54L293.07 133.54L294.54 134.22Q294.28 134.81 293.93 135.36Q293.58 135.91 293.07 136.36Q292.56 136.81 291.84 137.08Q291.13 137.35 290.14 137.35ZM308.17 137.35L308.17 137.35Q306.86 137.35 305.92 136.84Q304.98 136.34 304.37 135.40Q303.75 134.46 303.47 133.09Q303.18 131.72 303.18 129.96L303.18 129.96Q303.18 128.22 303.47 126.84Q303.75 125.46 304.37 124.52Q304.98 123.58 305.92 123.08Q306.86 122.57 308.17 122.57L308.17 122.57Q309.48 122.57 310.42 123.08Q311.36 123.58 311.98 124.52Q312.59 125.46 312.88 126.84Q313.16 128.22 313.16 129.96L313.16 129.96Q313.16 131.72 312.88 133.09Q312.59 134.46 311.98 135.40Q311.36 136.34 310.42 136.84Q309.48 137.35 308.17 137.35ZM308.17 135.85L308.17 135.85Q309.03 135.85 309.62 135.51Q310.22 135.18 310.61 134.56Q310.99 133.95 311.17 133.08Q311.34 132.21 311.34 131.13L311.34 131.13L311.34 128.79Q311.34 127.73 311.17 126.85Q310.99 125.97 310.61 125.36Q310.22 124.74 309.62 124.41Q309.03 124.07 308.17 124.07L308.17 124.07Q307.31 124.07 306.72 124.41Q306.12 124.74 305.74 125.36Q305.35 125.97 305.17 126.85Q305.00 127.73 305.00 128.79L305.00 128.79L305.00 131.13Q305.00 132.21 305.17 133.08Q305.35 133.95 305.74 134.56Q306.12 135.18 306.72 135.51Q307.31 135.85 308.17 135.85ZM329.84 137.10L329.84 129.94L329.84 125.42L329.67 125.42L326.67 132.76L323.66 125.42L323.50 125.42L323.50 129.94L323.50 137.10L321.92 137.10L321.92 122.82L324.13 122.82L326.65 129.12L326.77 129.12L329.29 122.82L331.41 122.82L331.41 137.10L329.84 137.10ZM342.59 137.10L340.87 137.10L340.87 122.82L346.06 122.82Q348.05 122.82 349.09 123.90Q350.13 124.99 350.13 126.93L350.13 126.93Q350.13 128.88 349.09 129.96Q348.05 131.04 346.06 131.04L346.06 131.04L342.59 131.04L342.59 137.10ZM342.59 124.31L342.59 129.55L346.02 129.55Q347.11 129.55 347.71 129.01Q348.31 128.47 348.31 127.46L348.31 127.46L348.31 126.40Q348.31 125.40 347.71 124.86Q347.11 124.31 346.02 124.31L346.02 124.31L342.59 124.31ZM369.18 137.10L367.36 137.10L366.16 133.03L361.14 133.03L359.94 137.10L358.16 137.10L362.53 122.82L364.81 122.82L369.18 137.10ZM365.75 131.54L363.74 124.64L363.56 124.64L361.55 131.54L365.75 131.54ZM384.22 137.10L379.35 125.07L379.21 125.07L379.21 137.10L377.66 137.10L377.66 122.82L380.09 122.82L384.96 134.85L385.10 134.85L385.10 122.82L386.66 122.82L386.66 137.10L384.22 137.10ZM401.51 137.10L399.79 137.10L399.79 131.49L394.86 122.82L396.83 122.82L398.87 126.54L400.61 129.80L400.69 129.80L402.47 126.54L404.52 122.82L406.44 122.82L401.51 131.49L401.51 137.10ZM416.16 128.53L415.10 128.53L415.10 123.76L413.34 123.76L413.34 122.82L417.92 122.82L417.92 123.76L416.16 123.76L416.16 128.53ZM419.76 128.53L418.78 128.53L418.78 122.82L420.11 122.82L421.44 125.56L421.50 125.56L422.83 122.82L424.10 122.82L424.10 128.53L423.12 128.53L423.12 125.93L423.14 124.23L423.06 124.23L421.44 127.42L419.82 124.23L419.74 124.23L419.76 125.93L419.76 128.53Z" fill="#FFFFFF"></path><path id="tm" d="M517.92    30.75L514.41    30.75L514.41    40.24L513.53    40.24L513.53    30.75L510.02    30.75L510.02    30L517.92    30L517.92    30.75ZM525.28    40.24L525.28    31.31L525.19    31.31L522.79    36.94L520.37    31.31L520.29    31.31L520.29    40.24L519.48    40.24L519.48    30L520.63    30L522.77    35.06L522.84    35.06L524.97    30L526.09    30L526.09    40.24L525.28    40.24Z" fill="#FFFFFF"></path></svg>